<svg width="18" height="18" viewBox="0 0 18 18" fill="none" xmlns="http://www.w3.org/2000/svg">
<g clip-path="url(#clip0_90_363)">
<path d="M15.75 13.5H4.5C4.30109 13.5 4.11032 13.579 3.96967 13.7197C3.82902 13.8603 3.75 14.0511 3.75 14.25C3.75 14.4489 3.82902 14.6397 3.96967 14.7803C4.11032 14.921 4.30109 15 4.5 15H15.75V16.5H4.5C3.90326 16.5 3.33097 16.2629 2.90901 15.841C2.48705 15.419 2.25 14.8467 2.25 14.25V3C2.25 2.60218 2.40804 2.22064 2.68934 1.93934C2.97064 1.65804 3.35218 1.5 3.75 1.5H15.75V13.5ZM3.75 12.0375C3.8715 12.0127 3.99675 12 4.125 12H14.25V3H3.75V12.0375ZM12 6.75H6V5.25H12V6.75Z" fill="#18174B"/>
</g>
<defs>
<clipPath id="clip0_90_363">
<rect width="18" height="18" fill="white"/>
</clipPath>
</defs>
</svg>
