<svg width="32" height="32" viewBox="0 0 32 32" fill="none" xmlns="http://www.w3.org/2000/svg">
<g clip-path="url(#clip0_122_934)">
<path d="M4 6.66671C4 5.93033 4.59695 5.33337 5.33333 5.33337H26.6667C27.403 5.33337 28 5.93033 28 6.66671C28 7.40309 27.403 8.00004 26.6667 8.00004H5.33333C4.59695 8.00004 4 7.40309 4 6.66671ZM4 16C4 15.2637 4.59695 14.6667 5.33333 14.6667H18.6667C19.403 14.6667 20 15.2637 20 16C20 16.7364 19.403 17.3334 18.6667 17.3334H5.33333C4.59695 17.3334 4 16.7364 4 16ZM4 25.3334C4 24.597 4.59695 24 5.33333 24H26.6667C27.403 24 28 24.597 28 25.3334C28 26.0698 27.403 26.6667 26.6667 26.6667H5.33333C4.59695 26.6667 4 26.0698 4 25.3334Z" fill="white"/>
</g>
<defs>
<clipPath id="clip0_122_934">
<rect width="32" height="32" fill="white"/>
</clipPath>
</defs>
</svg>
