<svg width="28" height="28" viewBox="0 0 28 28" fill="none" xmlns="http://www.w3.org/2000/svg">
<g clip-path="url(#clip0_119_255)">
<path d="M18.667 4.66675H9.33366C6.75633 4.66675 4.66699 6.75609 4.66699 9.33341V18.6667C4.66699 21.2441 6.75633 23.3334 9.33366 23.3334H18.667C21.2443 23.3334 23.3337 21.2441 23.3337 18.6667V9.33341C23.3337 6.75609 21.2443 4.66675 18.667 4.66675Z" stroke="white" stroke-width="1.75" stroke-linecap="round" stroke-linejoin="round"/>
<path d="M14 17.5C15.933 17.5 17.5 15.933 17.5 14C17.5 12.067 15.933 10.5 14 10.5C12.067 10.5 10.5 12.067 10.5 14C10.5 15.933 12.067 17.5 14 17.5Z" stroke="white" stroke-width="1.75" stroke-linecap="round" stroke-linejoin="round"/>
<path d="M19.25 8.75V8.751" stroke="white" stroke-width="1.75" stroke-linecap="round" stroke-linejoin="round"/>
</g>
<defs>
<clipPath id="clip0_119_255">
<rect width="28" height="28" fill="white"/>
</clipPath>
</defs>
</svg>
