<svg width="23" height="23" viewBox="0 0 23 23" fill="none" xmlns="http://www.w3.org/2000/svg">
<path d="M22.7709 6.90004C22.7709 6.90004 22.5463 5.31429 21.8545 4.61801C20.9785 3.7016 19.9992 3.69711 19.55 3.6432C16.3336 3.40961 11.5045 3.40961 11.5045 3.40961H11.4955C11.4955 3.40961 6.66641 3.40961 3.45 3.6432C3.00078 3.69711 2.02148 3.7016 1.14551 4.61801C0.453711 5.31429 0.233594 6.90004 0.233594 6.90004C0.233594 6.90004 0 8.76429 0 10.6241V12.367C0 14.2268 0.229102 16.0911 0.229102 16.0911C0.229102 16.0911 0.453711 17.6768 1.14102 18.3731C2.01699 19.2895 3.16699 19.258 3.6791 19.3569C5.5209 19.5321 11.5 19.586 11.5 19.586C11.5 19.586 16.3336 19.577 19.55 19.3479C19.9992 19.294 20.9785 19.2895 21.8545 18.3731C22.5463 17.6768 22.7709 16.0911 22.7709 16.0911C22.7709 16.0911 23 14.2313 23 12.367V10.6241C23 8.76429 22.7709 6.90004 22.7709 6.90004ZM9.12363 14.4828V8.01859L15.3363 11.262L9.12363 14.4828Z" fill="white"/>
</svg>
